<mxfile host="app.diagrams.net" modified="2024-02-20T06:46:23.850Z" agent="Mozilla/5.0 (Macintosh; Intel Mac OS X 10_15_7) AppleWebKit/537.36 (KHTML, like Gecko) Chrome/121.0.0.0 Safari/537.36" etag="CeuuCbWUFf1PdQZjOXkA" version="23.1.5" type="device">
  <diagram name="Page-1" id="e_ohxMPWxcpRXe57xAmK">
    <mxGraphModel dx="2233" dy="790" grid="1" gridSize="10" guides="1" tooltips="1" connect="1" arrows="1" fold="1" page="1" pageScale="1" pageWidth="827" pageHeight="1169" math="0" shadow="0">
      <root>
        <mxCell id="0" />
        <mxCell id="1" parent="0" />
        <mxCell id="9mN_1-zHYzCh1LPuohOm-4" style="edgeStyle=orthogonalEdgeStyle;rounded=0;orthogonalLoop=1;jettySize=auto;html=1;" edge="1" parent="1" source="9mN_1-zHYzCh1LPuohOm-1" target="9mN_1-zHYzCh1LPuohOm-3">
          <mxGeometry relative="1" as="geometry" />
        </mxCell>
        <mxCell id="9mN_1-zHYzCh1LPuohOm-5" value="real-time &lt;br&gt;streaming" style="edgeLabel;html=1;align=center;verticalAlign=middle;resizable=0;points=[];" vertex="1" connectable="0" parent="9mN_1-zHYzCh1LPuohOm-4">
          <mxGeometry x="-0.0372" y="-4" relative="1" as="geometry">
            <mxPoint as="offset" />
          </mxGeometry>
        </mxCell>
        <mxCell id="9mN_1-zHYzCh1LPuohOm-1" value="Manufacturing &lt;br&gt;equipment" style="verticalLabelPosition=bottom;aspect=fixed;html=1;shape=mxgraph.salesforce.manufacturing;" vertex="1" parent="1">
          <mxGeometry x="-40" y="150" width="60" height="60" as="geometry" />
        </mxCell>
        <mxCell id="9mN_1-zHYzCh1LPuohOm-7" style="edgeStyle=orthogonalEdgeStyle;rounded=0;orthogonalLoop=1;jettySize=auto;html=1;" edge="1" parent="1" source="9mN_1-zHYzCh1LPuohOm-3" target="9mN_1-zHYzCh1LPuohOm-6">
          <mxGeometry relative="1" as="geometry" />
        </mxCell>
        <mxCell id="9mN_1-zHYzCh1LPuohOm-8" value="analyze streaming &lt;br&gt;IoT data" style="edgeLabel;html=1;align=center;verticalAlign=middle;resizable=0;points=[];" vertex="1" connectable="0" parent="9mN_1-zHYzCh1LPuohOm-7">
          <mxGeometry x="-0.0116" y="2" relative="1" as="geometry">
            <mxPoint y="1" as="offset" />
          </mxGeometry>
        </mxCell>
        <mxCell id="9mN_1-zHYzCh1LPuohOm-3" value="Azure IoT Hub" style="image;aspect=fixed;html=1;points=[];align=center;fontSize=12;image=img/lib/azure2/iot/IoT_Hub.svg;" vertex="1" parent="1">
          <mxGeometry x="110" y="148" width="64" height="64" as="geometry" />
        </mxCell>
        <mxCell id="9mN_1-zHYzCh1LPuohOm-10" style="edgeStyle=orthogonalEdgeStyle;rounded=0;orthogonalLoop=1;jettySize=auto;html=1;" edge="1" parent="1" source="9mN_1-zHYzCh1LPuohOm-6" target="9mN_1-zHYzCh1LPuohOm-9">
          <mxGeometry relative="1" as="geometry" />
        </mxCell>
        <mxCell id="9mN_1-zHYzCh1LPuohOm-11" value="Identify &lt;br&gt;equipment failures" style="edgeLabel;html=1;align=center;verticalAlign=middle;resizable=0;points=[];" vertex="1" connectable="0" parent="9mN_1-zHYzCh1LPuohOm-10">
          <mxGeometry x="-0.1344" relative="1" as="geometry">
            <mxPoint as="offset" />
          </mxGeometry>
        </mxCell>
        <mxCell id="9mN_1-zHYzCh1LPuohOm-16" style="edgeStyle=orthogonalEdgeStyle;rounded=0;orthogonalLoop=1;jettySize=auto;html=1;" edge="1" parent="1" source="9mN_1-zHYzCh1LPuohOm-6" target="9mN_1-zHYzCh1LPuohOm-12">
          <mxGeometry relative="1" as="geometry">
            <Array as="points">
              <mxPoint x="348" y="335" />
            </Array>
          </mxGeometry>
        </mxCell>
        <mxCell id="9mN_1-zHYzCh1LPuohOm-17" value="Raw Data" style="edgeLabel;html=1;align=center;verticalAlign=middle;resizable=0;points=[];" vertex="1" connectable="0" parent="9mN_1-zHYzCh1LPuohOm-16">
          <mxGeometry x="0.1077" relative="1" as="geometry">
            <mxPoint as="offset" />
          </mxGeometry>
        </mxCell>
        <mxCell id="9mN_1-zHYzCh1LPuohOm-6" value="Azure Stream &lt;br&gt;Analytics" style="image;aspect=fixed;html=1;points=[];align=center;fontSize=12;image=img/lib/azure2/analytics/Stream_Analytics_Jobs.svg;" vertex="1" parent="1">
          <mxGeometry x="320" y="156" width="56.28" height="48" as="geometry" />
        </mxCell>
        <mxCell id="9mN_1-zHYzCh1LPuohOm-9" value="Azure anomaly &lt;br&gt;detection" style="image;aspect=fixed;html=1;points=[];align=center;fontSize=12;image=img/lib/azure2/ai_machine_learning/Anomaly_Detector.svg;" vertex="1" parent="1">
          <mxGeometry x="520" y="153" width="54" height="54" as="geometry" />
        </mxCell>
        <mxCell id="9mN_1-zHYzCh1LPuohOm-15" value="preparing &lt;br&gt;datasets" style="edgeStyle=orthogonalEdgeStyle;rounded=0;orthogonalLoop=1;jettySize=auto;html=1;" edge="1" parent="1" source="9mN_1-zHYzCh1LPuohOm-12" target="9mN_1-zHYzCh1LPuohOm-14">
          <mxGeometry relative="1" as="geometry">
            <Array as="points">
              <mxPoint x="500" y="340" />
              <mxPoint x="500" y="340" />
            </Array>
          </mxGeometry>
        </mxCell>
        <mxCell id="9mN_1-zHYzCh1LPuohOm-12" value="Azure Machine &lt;br&gt;Learning Studio" style="image;aspect=fixed;html=1;points=[];align=center;fontSize=12;image=img/lib/azure2/ai_machine_learning/Machine_Learning_Studio_Workspaces.svg;" vertex="1" parent="1">
          <mxGeometry x="414" y="310" width="50" height="50" as="geometry" />
        </mxCell>
        <mxCell id="9mN_1-zHYzCh1LPuohOm-14" value="Azure Blob Storage" style="image;sketch=0;aspect=fixed;html=1;points=[];align=center;fontSize=12;image=img/lib/mscae/BlobBlock.svg;" vertex="1" parent="1">
          <mxGeometry x="600" y="314" width="50" height="42" as="geometry" />
        </mxCell>
        <mxCell id="9mN_1-zHYzCh1LPuohOm-19" value="Feature &lt;br&gt;engineering" style="verticalLabelPosition=bottom;html=1;verticalAlign=top;align=center;strokeColor=none;fillColor=#00BEF2;shape=mxgraph.azure.virtual_machine_feature;pointerEvents=1;" vertex="1" parent="1">
          <mxGeometry x="720" y="269" width="50" height="45" as="geometry" />
        </mxCell>
        <mxCell id="9mN_1-zHYzCh1LPuohOm-26" style="edgeStyle=orthogonalEdgeStyle;rounded=0;orthogonalLoop=1;jettySize=auto;html=1;entryX=0;entryY=0.5;entryDx=0;entryDy=0;entryPerimeter=0;" edge="1" parent="1" source="9mN_1-zHYzCh1LPuohOm-20" target="9mN_1-zHYzCh1LPuohOm-23">
          <mxGeometry relative="1" as="geometry" />
        </mxCell>
        <mxCell id="9mN_1-zHYzCh1LPuohOm-20" value="Model &lt;br&gt;training" style="sketch=0;points=[[0,0,0],[0.25,0,0],[0.5,0,0],[0.75,0,0],[1,0,0],[0,1,0],[0.25,1,0],[0.5,1,0],[0.75,1,0],[1,1,0],[0,0.25,0],[0,0.5,0],[0,0.75,0],[1,0.25,0],[1,0.5,0],[1,0.75,0]];outlineConnect=0;fontColor=#232F3E;fillColor=#01A88D;strokeColor=#ffffff;dashed=0;verticalLabelPosition=bottom;verticalAlign=top;align=center;html=1;fontSize=12;fontStyle=0;aspect=fixed;shape=mxgraph.aws4.resourceIcon;resIcon=mxgraph.aws4.transcribe;" vertex="1" parent="1">
          <mxGeometry x="725" y="370" width="40" height="40" as="geometry" />
        </mxCell>
        <mxCell id="9mN_1-zHYzCh1LPuohOm-21" style="edgeStyle=orthogonalEdgeStyle;rounded=0;orthogonalLoop=1;jettySize=auto;html=1;entryX=0;entryY=0.5;entryDx=0;entryDy=0;entryPerimeter=0;" edge="1" parent="1" source="9mN_1-zHYzCh1LPuohOm-14" target="9mN_1-zHYzCh1LPuohOm-19">
          <mxGeometry relative="1" as="geometry" />
        </mxCell>
        <mxCell id="9mN_1-zHYzCh1LPuohOm-22" style="edgeStyle=orthogonalEdgeStyle;rounded=0;orthogonalLoop=1;jettySize=auto;html=1;entryX=0;entryY=0.5;entryDx=0;entryDy=0;entryPerimeter=0;" edge="1" parent="1" source="9mN_1-zHYzCh1LPuohOm-14" target="9mN_1-zHYzCh1LPuohOm-20">
          <mxGeometry relative="1" as="geometry" />
        </mxCell>
        <mxCell id="9mN_1-zHYzCh1LPuohOm-31" style="edgeStyle=orthogonalEdgeStyle;rounded=0;orthogonalLoop=1;jettySize=auto;html=1;" edge="1" parent="1" source="9mN_1-zHYzCh1LPuohOm-23" target="9mN_1-zHYzCh1LPuohOm-29">
          <mxGeometry relative="1" as="geometry" />
        </mxCell>
        <mxCell id="9mN_1-zHYzCh1LPuohOm-33" style="edgeStyle=orthogonalEdgeStyle;rounded=0;orthogonalLoop=1;jettySize=auto;html=1;" edge="1" parent="1" source="9mN_1-zHYzCh1LPuohOm-23" target="9mN_1-zHYzCh1LPuohOm-32">
          <mxGeometry relative="1" as="geometry" />
        </mxCell>
        <mxCell id="9mN_1-zHYzCh1LPuohOm-23" value="Predict maintenance &lt;br&gt;needs Insights" style="outlineConnect=0;dashed=0;verticalLabelPosition=bottom;verticalAlign=top;align=center;html=1;shape=mxgraph.aws3.maintenance_window;fillColor=#759C3E;gradientColor=none;" vertex="1" parent="1">
          <mxGeometry x="860" y="267" width="50" height="50" as="geometry" />
        </mxCell>
        <mxCell id="9mN_1-zHYzCh1LPuohOm-30" style="edgeStyle=orthogonalEdgeStyle;rounded=0;orthogonalLoop=1;jettySize=auto;html=1;" edge="1" parent="1" source="9mN_1-zHYzCh1LPuohOm-24" target="9mN_1-zHYzCh1LPuohOm-29">
          <mxGeometry relative="1" as="geometry">
            <mxPoint x="980" y="349" as="targetPoint" />
            <Array as="points">
              <mxPoint x="960" y="415" />
              <mxPoint x="960" y="349" />
            </Array>
          </mxGeometry>
        </mxCell>
        <mxCell id="9mN_1-zHYzCh1LPuohOm-24" value="Existing maintenance &lt;br&gt;management systems" style="sketch=0;points=[[0,0,0],[0.25,0,0],[0.5,0,0],[0.75,0,0],[1,0,0],[0,1,0],[0.25,1,0],[0.5,1,0],[0.75,1,0],[1,1,0],[0,0.25,0],[0,0.5,0],[0,0.75,0],[1,0.25,0],[1,0.5,0],[1,0.75,0]];points=[[0,0,0],[0.25,0,0],[0.5,0,0],[0.75,0,0],[1,0,0],[0,1,0],[0.25,1,0],[0.5,1,0],[0.75,1,0],[1,1,0],[0,0.25,0],[0,0.5,0],[0,0.75,0],[1,0.25,0],[1,0.5,0],[1,0.75,0]];outlineConnect=0;fontColor=#232F3E;fillColor=#E7157B;strokeColor=#ffffff;dashed=0;verticalLabelPosition=bottom;verticalAlign=top;align=center;html=1;fontSize=12;fontStyle=0;aspect=fixed;shape=mxgraph.aws4.resourceIcon;resIcon=mxgraph.aws4.systems_manager;" vertex="1" parent="1">
          <mxGeometry x="860" y="390" width="50" height="50" as="geometry" />
        </mxCell>
        <mxCell id="9mN_1-zHYzCh1LPuohOm-25" style="edgeStyle=orthogonalEdgeStyle;rounded=0;orthogonalLoop=1;jettySize=auto;html=1;entryX=0;entryY=0.5;entryDx=0;entryDy=0;entryPerimeter=0;" edge="1" parent="1" source="9mN_1-zHYzCh1LPuohOm-19" target="9mN_1-zHYzCh1LPuohOm-23">
          <mxGeometry relative="1" as="geometry" />
        </mxCell>
        <mxCell id="9mN_1-zHYzCh1LPuohOm-27" style="edgeStyle=orthogonalEdgeStyle;rounded=0;orthogonalLoop=1;jettySize=auto;html=1;entryX=0;entryY=0.75;entryDx=0;entryDy=0;entryPerimeter=0;" edge="1" parent="1" target="9mN_1-zHYzCh1LPuohOm-24">
          <mxGeometry relative="1" as="geometry">
            <mxPoint x="763" y="291.5" as="sourcePoint" />
            <mxPoint x="853" y="427.5" as="targetPoint" />
            <Array as="points">
              <mxPoint x="813" y="292" />
              <mxPoint x="813" y="428" />
            </Array>
          </mxGeometry>
        </mxCell>
        <mxCell id="9mN_1-zHYzCh1LPuohOm-28" style="edgeStyle=orthogonalEdgeStyle;rounded=0;orthogonalLoop=1;jettySize=auto;html=1;entryX=0;entryY=0.75;entryDx=0;entryDy=0;entryPerimeter=0;" edge="1" parent="1" source="9mN_1-zHYzCh1LPuohOm-20" target="9mN_1-zHYzCh1LPuohOm-24">
          <mxGeometry relative="1" as="geometry" />
        </mxCell>
        <mxCell id="9mN_1-zHYzCh1LPuohOm-29" value="Proactive scheduling &lt;br&gt;of maintenance &lt;br&gt;activities and resource allocation" style="sketch=0;outlineConnect=0;fontColor=#232F3E;gradientColor=none;fillColor=#E7157B;strokeColor=none;dashed=0;verticalLabelPosition=bottom;verticalAlign=top;align=center;html=1;fontSize=12;fontStyle=0;aspect=fixed;pointerEvents=1;shape=mxgraph.aws4.maintenance_windows;" vertex="1" parent="1">
          <mxGeometry x="1010" y="310" width="78" height="78" as="geometry" />
        </mxCell>
        <mxCell id="9mN_1-zHYzCh1LPuohOm-32" value="Power BI&lt;br&gt;Monitor equipment performance &lt;br&gt;and maintenance needs in real-time" style="image;aspect=fixed;html=1;points=[];align=center;fontSize=12;image=img/lib/azure2/analytics/Power_BI_Embedded.svg;" vertex="1" parent="1">
          <mxGeometry x="859" y="60" width="51" height="68" as="geometry" />
        </mxCell>
      </root>
    </mxGraphModel>
  </diagram>
</mxfile>
